<svg width="195" height="126" viewBox="0 0 195 126" fill="none" xmlns="http://www.w3.org/2000/svg">
<g clip-path="url(#clip0_58_137)">
<path d="M45.6083 125.802L47.1943 117.946H45.2008L45.5092 116.35H51.1593L50.8509 117.946H49.0556L47.4696 125.802H45.6193H45.6083Z" fill="white"/>
<path d="M51.2254 121.687C51.2254 120.85 51.3575 120.08 51.6329 119.387C51.8972 118.694 52.2937 118.1 52.8114 117.593C53.318 117.109 53.8797 116.746 54.5075 116.504C55.1353 116.262 55.8291 116.141 56.5671 116.141C57.8777 116.141 58.924 116.537 59.717 117.318C60.499 118.1 60.8955 119.156 60.8955 120.476C60.8955 121.302 60.7633 122.061 60.488 122.754C60.2126 123.447 59.8272 124.041 59.3095 124.537C58.8139 125.021 58.2412 125.384 57.6134 125.626C56.9856 125.868 56.2917 125.989 55.5428 125.989C54.2321 125.989 53.1968 125.593 52.4038 124.812C51.6219 124.019 51.2254 122.974 51.2254 121.676V121.687ZM53.1087 121.555C53.1087 122.358 53.351 123.007 53.8246 123.502C54.2982 123.997 54.926 124.239 55.708 124.239C56.6882 124.239 57.4812 123.898 58.098 123.227C58.7148 122.556 59.0232 121.676 59.0232 120.597C59.0232 119.772 58.7919 119.123 58.3183 118.639C57.8447 118.155 57.2169 117.913 56.4129 117.913C55.4437 117.913 54.6617 118.254 54.0449 118.925C53.4281 119.607 53.1087 120.476 53.1087 121.555Z" fill="white"/>
<path d="M63.3075 125.802H61.4462L63.2855 116.35H65.8077C66.8209 116.35 67.6029 116.592 68.1536 117.065C68.7043 117.538 68.9797 118.221 68.9797 119.101C68.9797 119.552 68.8916 119.959 68.7374 120.333C68.5721 120.707 68.3298 121.037 68.0104 121.302C67.669 121.588 67.2945 121.797 66.887 121.929C66.4795 122.061 65.9398 122.116 65.235 122.116H64.0344L63.3186 125.802H63.3075ZM64.3539 120.465H65.301C65.8848 120.465 66.3253 120.344 66.6117 120.113C66.9091 119.882 67.0522 119.53 67.0522 119.068C67.0522 118.661 66.9091 118.353 66.6227 118.155C66.3363 117.957 65.8958 117.857 65.29 117.857C65.1799 117.857 65.0918 117.857 65.0257 117.857C64.9596 117.857 64.9045 117.857 64.8495 117.868L64.3428 120.443L64.3539 120.465Z" fill="white"/>
<path d="M74.839 125.802L76.414 117.946H74.4205L74.7289 116.35H80.379L80.0706 117.946H78.2753L76.6893 125.802H74.839Z" fill="white"/>
<path d="M79.9274 125.802L81.7667 116.35H83.6171L81.7778 125.802H79.9274Z" fill="white"/>
<path d="M83.6391 125.802L85.4784 116.35H90.765L90.4566 117.957H87.0313L86.5908 120.201H90.0161L89.6967 121.797H86.2934L85.8198 124.195H89.2451L88.9257 125.791H83.6391V125.802Z" fill="white"/>
<path d="M95.523 122.259L97.6817 125.802H95.6332L93.4304 121.599L92.6154 125.802H90.765L92.6044 116.35H95.2587C96.3711 116.35 97.2192 116.592 97.8249 117.087C98.4307 117.582 98.728 118.265 98.728 119.156C98.728 120.047 98.4417 120.773 97.858 121.335C97.2742 121.896 96.4922 122.215 95.512 122.27L95.523 122.259ZM93.5846 120.85C93.6397 120.85 93.7057 120.85 93.7718 120.85C93.8379 120.85 93.948 120.85 94.0912 120.85C95.0164 120.85 95.6992 120.718 96.1398 120.443C96.5803 120.179 96.8006 119.761 96.8006 119.2C96.8006 118.782 96.6574 118.463 96.3821 118.232C96.0957 118.012 95.6992 117.89 95.1816 117.89C95.0494 117.89 94.8842 117.89 94.719 117.89C94.5428 117.89 94.3556 117.901 94.1573 117.923L93.5956 120.817L93.5846 120.85Z" fill="white"/>
<path d="M104.72 125.802L106.295 117.946H104.301L104.609 116.35H110.26L109.951 117.946H108.156L106.57 125.802H104.72Z" fill="white"/>
<path d="M114.577 122.259L116.747 125.802H114.698L112.506 121.599L111.691 125.802H109.841L111.669 116.35H114.324C115.436 116.35 116.295 116.592 116.89 117.087C117.496 117.582 117.793 118.265 117.793 119.156C117.793 120.047 117.507 120.773 116.923 121.335C116.339 121.896 115.557 122.215 114.577 122.27V122.259ZM112.65 120.85C112.705 120.85 112.771 120.85 112.848 120.85C112.914 120.85 113.024 120.85 113.167 120.85C114.092 120.85 114.775 120.718 115.216 120.443C115.656 120.179 115.877 119.761 115.877 119.2C115.877 118.782 115.733 118.463 115.458 118.232C115.172 118.012 114.775 117.89 114.258 117.89C114.114 117.89 113.96 117.89 113.784 117.89C113.608 117.89 113.421 117.901 113.222 117.923L112.661 120.817L112.65 120.85Z" fill="white"/>
<path d="M116.725 125.802L122.033 116.35H124.016L126.075 125.802H124.181L123.751 123.81H119.864L118.762 125.802H116.725ZM123.388 122.039L122.672 118.661L120.822 122.039H123.388Z" fill="white"/>
<path d="M126.461 125.802L128.3 116.35H130.151L128.311 125.802H126.461Z" fill="white"/>
<path d="M130.228 125.802L132.078 116.35H134.49L136.682 123.678L138.114 116.35H139.865L138.014 125.802H135.602L133.433 118.43L131.957 125.802H130.217H130.228Z" fill="white"/>
<path d="M139.909 125.802L141.748 116.35H143.598L141.759 125.802H139.909Z" fill="white"/>
<path d="M143.664 125.802L145.515 116.35H147.927L150.119 123.678L151.55 116.35H153.302L151.451 125.802H149.039L146.87 118.43L145.394 125.802H143.653H143.664Z" fill="white"/>
<path d="M163.544 120.861C163.412 122.435 162.873 123.689 161.914 124.614C160.956 125.538 159.712 126 158.192 126C156.892 126 155.846 125.604 155.053 124.823C154.26 124.041 153.874 122.996 153.874 121.687C153.874 121.037 153.951 120.443 154.117 119.882C154.282 119.321 154.524 118.815 154.833 118.353C155.317 117.648 155.934 117.109 156.694 116.724C157.443 116.339 158.269 116.152 159.161 116.152C160.262 116.152 161.188 116.416 161.914 116.955C162.652 117.483 163.137 118.232 163.368 119.2H161.331C161.165 118.793 160.879 118.485 160.472 118.254C160.064 118.023 159.602 117.912 159.051 117.912C158.093 117.912 157.3 118.254 156.683 118.925C156.066 119.607 155.758 120.476 155.758 121.555C155.758 122.369 156 123.018 156.474 123.502C156.947 123.986 157.586 124.228 158.39 124.228C159.007 124.228 159.568 124.074 160.075 123.766C160.582 123.458 160.978 123.029 161.265 122.49H157.432L157.751 120.861H163.555H163.544Z" fill="white"/>
<path d="M115.018 0L106.999 26.4632H78.2643L55.0912 103.234L18.2499 125.329L40.586 50.2636L61.9749 31.7888L42.7777 41.2738L47.5137 25.737H25.5191L0 0H115.018Z" fill="#CC1E27"/>
<path d="M123.355 0H195C195 0 190.407 23.7454 184.614 30.4794C177.521 38.71 161.463 46.8745 161.463 46.8745C161.463 46.8745 172.62 53.2345 175.131 61.8061C177.521 69.9597 172.212 92.0435 166.012 99.6909C165.945 99.7679 165.89 99.8449 165.824 99.9219C161.562 105.116 155.163 108.075 148.445 108.075H78.1432L85.985 82.2175L139.402 82.0304L145.052 63.2696H105.854L151.066 26.8483H115.216L123.355 0Z" fill="#ED9028"/>
</g>
<defs>
<clipPath id="clip0_58_137">
<rect width="195" height="126" fill="white"/>
</clipPath>
</defs>
</svg>
