<svg width="22" height="22" viewBox="0 0 22 22" fill="none" xmlns="http://www.w3.org/2000/svg">
<path d="M18.5623 6C18.616 5.69354 18.6019 5.37903 18.5212 5.07857C18.4404 4.7781 18.2949 4.49895 18.0947 4.26071C17.8946 4.02248 17.6448 3.83093 17.3628 3.69951C17.0807 3.5681 16.7734 3.5 16.4622 3.5H5.53825C5.22712 3.5 4.91975 3.5681 4.63774 3.69951C4.35572 3.83093 4.10589 4.02248 3.90577 4.26071C3.70565 4.49895 3.5601 4.7781 3.47933 5.07857C3.39857 5.37903 3.38455 5.69354 3.43825 6M16.5002 3.5C16.5282 3.24 16.5432 3.111 16.5432 3.004C16.5443 2.50969 16.3623 2.0325 16.0323 1.66446C15.7023 1.29643 15.2477 1.06364 14.7562 1.011C14.6502 1 14.5203 1 14.2603 1H7.74025C7.48025 1 7.34925 1 7.24325 1.011C6.75175 1.06364 6.29716 1.29643 5.96717 1.66446C5.63718 2.0325 5.45517 2.50969 5.45625 3.004C5.45625 3.111 5.47025 3.241 5.49925 3.5" stroke="#F5F5F5" stroke-width="1.5"/>
<path d="M14.0005 17H8.00049" stroke="#F5F5F5" stroke-width="1.5" stroke-linecap="round"/>
<path d="M1.38433 12.793C0.937329 9.629 0.714329 8.048 1.66233 7.023C2.61033 6 4.29833 6 7.67233 6H14.3283C17.7023 6 19.3903 6 20.3383 7.024C21.2863 8.048 21.0623 9.629 20.6163 12.793L20.1943 15.793C19.8443 18.273 19.6693 19.514 18.7723 20.257C17.8753 21 16.5523 21 13.9053 21H8.09533C5.44933 21 4.12533 21 3.22833 20.257C2.33133 19.514 2.15633 18.274 1.80633 15.793L1.38433 12.793Z" stroke="#F5F5F5" stroke-width="1.5"/>
</svg>
