<svg width="22" height="22" viewBox="0 0 22 22" fill="none" xmlns="http://www.w3.org/2000/svg">
<path d="M11.0049 8.92969C12.8685 8.92973 14.1593 9.45198 14.8623 10.2393C15.5376 10.9957 15.8085 12.1553 15.2939 13.7832L15.292 13.791L15.2891 13.7979L13.4658 20.0146C13.3759 20.2937 13.1137 20.603 12.6484 20.8535C12.1912 21.0996 11.6048 21.25 11.0049 21.25C10.3883 21.25 9.79839 21.0988 9.34277 20.8535C8.88333 20.6062 8.62269 20.3008 8.53027 20.0215L6.69043 13.7969L6.68652 13.7861L6.60059 13.4863C6.21452 12.0148 6.49431 10.9504 7.13086 10.2402C7.83745 9.45197 9.13319 8.92969 11.0049 8.92969ZM4.24707 9.36816C3.65082 10.4546 3.26107 12.0152 3.7793 14.0938L3.92285 14.6084L5.36914 19.458C5.10575 19.5363 4.81694 19.582 4.52246 19.582C4.01416 19.582 3.53424 19.4598 3.16797 19.2627C2.84273 19.0875 2.65001 18.8792 2.56055 18.6875L2.52832 18.6064L0.96875 13.332L0.96582 13.3223L0.894531 13.0742C0.575456 11.8543 0.812311 10.9974 1.31934 10.4336C1.85443 9.83871 2.82473 9.4162 4.24707 9.36816ZM17.7383 9.36816C19.1665 9.41467 20.1437 9.8378 20.6816 10.4346C21.2231 11.0353 21.4567 11.9682 21.0303 13.3193L21.0264 13.332L19.4619 18.6162C19.3897 18.8265 19.193 19.0657 18.8271 19.2627C18.4609 19.4599 17.981 19.582 17.4727 19.582C17.1779 19.582 16.8886 19.5364 16.625 19.458L18.0596 14.6289L18.0586 14.6279C18.7894 12.2752 18.3923 10.5453 17.7383 9.36816ZM4.52246 2.40332C5.26301 2.40344 6.03419 2.96699 6.23535 3.83789V3.83984C6.36942 4.41403 6.24724 5.29538 5.87012 6.04297C5.48466 6.807 4.98105 7.16784 4.52246 7.16797C4.06381 7.16797 3.55936 6.80714 3.17383 6.04297C2.79681 5.29547 2.67458 4.41398 2.80859 3.83984L2.80957 3.83789C3.01077 2.96693 3.78185 2.40332 4.52246 2.40332ZM17.4727 2.40332C18.2132 2.4034 18.9844 2.96695 19.1855 3.83789V3.83984C19.3196 4.41404 19.1975 5.29536 18.8203 6.04297C18.4348 6.80705 17.9313 7.16789 17.4727 7.16797C17.0238 7.16797 16.5227 6.81036 16.1377 6.04395C15.7619 5.29579 15.6394 4.41407 15.7734 3.83984L15.7744 3.83789C15.9762 2.96435 16.7493 2.40332 17.4727 2.40332ZM11.0049 0.75C11.9402 0.750102 12.8966 1.4481 13.1416 2.5293V2.53125C13.3067 3.25398 13.1535 4.33033 12.7012 5.2334C12.24 6.15387 11.6151 6.63173 11.0049 6.63184C10.3852 6.63184 9.75683 6.15109 9.29492 5.23242C8.84117 4.32984 8.68734 3.25293 8.85254 2.53027C9.11301 1.44297 10.0601 0.75 11.0049 0.75Z" stroke="#F5F5F5" stroke-width="1.5"/>
</svg>
