<svg width="40" height="40" viewBox="0 0 40 40" fill="none" xmlns="http://www.w3.org/2000/svg">
<circle cx="20" cy="20" r="20" fill="white"/>
<path d="M27.575 32.42C26.105 33.845 24.5 33.62 22.955 32.945C21.32 32.255 19.82 32.225 18.095 32.945C15.935 33.875 14.795 33.605 13.505 32.42C6.185 24.875 7.265 13.385 15.575 12.965C17.6 13.07 19.01 14.075 20.195 14.165C21.965 13.805 23.66 12.77 25.55 12.905C27.815 13.085 29.525 13.985 30.65 15.605C25.97 18.41 27.08 24.575 31.37 26.3C30.515 28.55 29.405 30.785 27.56 32.435L27.575 32.42ZM20.045 12.875C19.82 9.53 22.535 6.77 25.655 6.5C26.09 10.37 22.145 13.25 20.045 12.875Z" fill="#0F172A"/>
</svg>
