<svg width="40" height="40" viewBox="0 0 40 40" fill="none" xmlns="http://www.w3.org/2000/svg">
<path d="M27.5509 26.0624C27.1686 27.3102 26.4986 28.4447 25.5978 29.3696C24.6971 30.2945 23.5921 30.9825 22.377 31.3749C22.1996 31.4316 22.0149 31.4605 21.8291 31.4609C21.3926 31.4612 20.9704 31.301 20.6391 31.0092C20.3077 30.7174 20.0891 30.3134 20.0229 29.8704C19.9566 29.4274 20.0471 28.9746 20.278 28.5942C20.5089 28.2138 20.8648 27.9309 21.2813 27.7968C21.9362 27.5855 22.5317 27.2149 23.0171 26.7165C23.5024 26.2181 23.8634 25.6067 24.0691 24.9343C24.1411 24.6993 24.2574 24.4812 24.4114 24.2924C24.5654 24.1036 24.7542 23.9479 24.9668 23.834C25.3963 23.6039 25.8972 23.5585 26.3593 23.7077C26.5882 23.7816 26.8006 23.901 26.9844 24.0591C27.1683 24.2173 27.32 24.4111 27.4309 24.6295C27.5419 24.8478 27.6098 25.0865 27.6309 25.3318C27.652 25.5771 27.6259 25.8243 27.5539 26.0593L27.5509 26.0624ZM34 23.6249C34 27.4374 32.525 31.0938 29.8995 33.7896C27.274 36.4855 23.713 38 20 38C16.287 38 12.726 36.4855 10.1005 33.7896C7.475 31.0938 6 27.4374 6 23.6249C6 19.1233 7.715 14.5342 11.0948 9.98728C11.2513 9.77659 11.4496 9.60237 11.6765 9.4761C11.9035 9.34984 12.1539 9.2744 12.4113 9.25477C12.6686 9.23513 12.9272 9.27174 13.1698 9.36218C13.4124 9.45262 13.6335 9.59484 13.8187 9.77946L16.815 12.7654L19.8478 4.23254C19.9481 3.95022 20.113 3.69679 20.3286 3.49359C20.5443 3.29039 20.8043 3.14339 21.0868 3.06497C21.3694 2.98655 21.6661 2.979 21.9521 3.04297C22.238 3.10694 22.5048 3.24055 22.73 3.43254C26.1174 6.32006 34 14.0701 34 23.6249ZM30.3478 23.6249C30.3478 17.1076 25.6898 11.3764 22.3556 8.1107L19.2802 16.767C19.1758 17.0609 19.0015 17.3232 18.7732 17.5302C18.5448 17.7372 18.2696 17.8822 17.9727 17.9521C17.6758 18.022 17.3666 18.0145 17.0732 17.9303C16.7799 17.8462 16.5117 17.688 16.293 17.4702L12.8037 13.9936C10.7174 17.278 9.65217 20.5092 9.65217 23.6249C9.65217 26.4428 10.7424 29.1454 12.683 31.138C14.6236 33.1305 17.2556 34.25 20 34.25C22.7444 34.25 25.3764 33.1305 27.317 31.138C29.2576 29.1454 30.3478 26.4428 30.3478 23.6249Z" fill="#A1A1A1"/>
</svg>
