<svg width="16" height="22" viewBox="0 0 16 22" fill="none" xmlns="http://www.w3.org/2000/svg">
<path d="M7.69677 22C5.28866 22 2.88055 22 0.472188 21.9997C0.145317 21.9997 0.00353217 21.8461 0.00353217 21.4928C0.00353217 20.0018 -0.00587064 18.5108 0.0060066 17.0201C0.0193685 15.3356 0.449671 13.7944 1.42237 12.464C2.13253 11.4926 3.02802 10.8167 4.16255 10.5728C4.45552 10.5098 4.75987 10.5038 5.05952 10.4861C5.15627 10.4804 5.20453 10.4497 5.21739 10.3492C5.21863 10.3403 5.2211 10.3316 5.22358 10.323C5.29583 10.0732 5.28123 9.86356 5.12609 9.62615C4.60868 8.83335 4.32116 7.92683 4.17046 6.97719C3.98736 5.82329 3.83988 4.66562 3.82652 3.4872C3.81093 2.11933 4.36669 1.1441 5.47176 0.577655C7.04302 -0.228081 8.63037 -0.198708 10.1643 0.714819C10.9521 1.18425 11.4497 1.92154 11.5442 2.91698C11.5848 3.34357 11.5774 3.77958 11.5517 4.20832C11.4821 5.3695 11.3542 6.52393 11.087 7.65304C10.9024 8.43291 10.6015 9.15861 10.1697 9.81775C10.1291 9.87973 10.1224 9.98644 10.1328 10.0673C10.1846 10.472 10.1885 10.4691 10.5597 10.4847C11.787 10.5356 12.7998 11.0983 13.6413 12.0455C14.5601 13.0798 15.0777 14.3358 15.29 15.7425C15.3598 16.2054 15.3885 16.68 15.3927 17.1497C15.4056 18.6 15.3974 20.0506 15.3977 21.5012C15.3977 21.8429 15.2522 22 14.9337 22C12.5214 22 10.1091 22 7.69677 22ZM2.88401 21.1441C2.88401 21.0738 2.88401 21.0161 2.88401 20.9582C2.88401 20.042 2.88475 19.126 2.88352 18.2098C2.88352 18.0648 2.90702 17.9317 3.01194 17.832C3.13937 17.7107 3.28561 17.6849 3.43803 17.7619C3.59664 17.842 3.66395 17.9896 3.66395 18.1764C3.66395 19.1104 3.66395 20.0447 3.66395 20.9787C3.66395 21.0312 3.66395 21.0838 3.66395 21.1441H11.738V20.9784C11.738 20.0533 11.7387 19.1282 11.7373 18.2031C11.7373 18.0621 11.7637 17.9344 11.8622 17.8366C11.9832 17.7167 12.125 17.6857 12.2754 17.7541C12.4417 17.8296 12.5172 17.9762 12.5174 18.1699C12.5179 19.1085 12.5179 20.0471 12.5182 20.9857C12.5182 21.0377 12.5182 21.0894 12.5182 21.1431H14.6145C14.6172 21.0946 14.6212 21.0549 14.6212 21.0153C14.6214 19.6814 14.6299 18.3478 14.619 17.0139C14.6073 15.6069 14.2562 14.3107 13.4901 13.1649C13.0376 12.4883 12.4699 11.9604 11.76 11.6214C11.6484 11.568 11.5809 11.5788 11.496 11.679C11.0046 12.2603 10.5057 12.8343 10.0099 13.411C9.84407 13.6036 9.67928 13.7971 9.51572 13.9884C9.98883 14.8233 10.047 15.6694 9.55803 16.4975C9.06958 17.3246 8.33888 17.6205 7.44537 17.4976C7.43918 17.5523 7.43324 17.6003 7.42879 17.6482C7.35604 18.4119 7.28527 19.1759 7.2098 19.939C7.18555 20.1829 7.03436 20.3298 6.81241 20.3325C6.51152 20.336 6.21038 20.3365 5.90924 20.3325C5.6524 20.329 5.48983 20.1271 5.5069 19.8496C5.59648 18.3936 5.68679 16.9376 5.77166 15.4813C5.79567 15.0715 5.81942 14.6632 6.00574 14.2943C6.05103 14.2046 6.03296 14.1544 5.97457 14.0868C5.27678 13.2792 4.58048 12.4699 3.88689 11.6577C3.81959 11.5791 3.76466 11.565 3.6736 11.6071C3.00847 11.914 2.46385 12.3907 2.02242 13.0065C1.17567 14.1876 0.794606 15.5449 0.782234 17.0298C0.771099 18.3545 0.780007 19.6793 0.780254 21.0043C0.780254 21.0482 0.780254 21.0919 0.780254 21.1447L2.88401 21.1441ZM5.07709 7.43234C5.07833 7.46306 5.07586 7.48139 5.08031 7.49755C5.29954 8.32215 5.61751 9.09043 6.17945 9.71131C6.58575 10.1603 7.06529 10.4599 7.66039 10.4734C8.30597 10.4879 8.81842 10.167 9.2517 9.67789C9.7983 9.06133 10.1076 8.30302 10.3231 7.49217C10.3273 7.4768 10.3236 7.45875 10.3236 7.43288C10.0754 7.41105 9.89876 7.25476 9.71392 7.09927C9.45732 6.88342 9.19256 6.67269 8.91047 6.50049C8.42697 6.20568 7.90239 6.0925 7.34787 6.18466C6.72358 6.28841 6.2037 6.62445 5.73059 7.05777C5.53659 7.23535 5.34705 7.41348 5.07709 7.43234ZM4.71261 11.3311C4.70915 11.3443 4.70568 11.3575 4.70222 11.3707C5.3228 12.0919 5.94364 12.8127 6.56447 13.5341C6.61544 13.4967 6.65231 13.4684 6.69042 13.4419C7.3887 12.9604 8.10604 12.9297 8.83673 13.3441C8.92334 13.3932 8.96615 13.3894 9.03172 13.3126C9.56149 12.6906 10.0955 12.0727 10.6277 11.4532C10.6515 11.4255 10.672 11.3942 10.7079 11.3462C10.6431 11.3411 10.6 11.3349 10.5567 11.3346C10.3672 11.333 10.1774 11.3328 9.98784 11.3328C9.7926 11.3328 9.65874 11.2339 9.58673 11.0369C9.53972 10.9081 9.49567 10.7782 9.44816 10.6432C8.28222 11.5567 7.11849 11.5551 5.95502 10.6442C5.90776 10.7776 5.86396 10.9032 5.81917 11.0282C5.74444 11.2371 5.60365 11.3363 5.39803 11.3319C5.25797 11.329 5.11767 11.3314 4.97762 11.3314C4.88928 11.3314 4.80095 11.3311 4.71261 11.3311ZM5.00979 6.58349C5.28989 6.35875 5.53288 6.14235 5.79492 5.95803C6.58105 5.4048 7.43349 5.17035 8.36511 5.38432C9.07774 5.54816 9.67804 5.94806 10.2256 6.45468C10.2712 6.49672 10.3192 6.53525 10.384 6.59103C10.4253 6.49106 10.4728 6.41453 10.4889 6.33072C10.5609 5.95749 10.6225 5.58184 10.6918 5.20808C10.7076 5.12319 10.6787 5.08574 10.6094 5.0596C10.4266 4.99061 10.2467 4.91219 10.0628 4.84644C8.28543 4.21182 6.5323 4.31072 4.80045 5.05502C4.71855 5.09032 4.69603 5.1337 4.71311 5.22506C4.77942 5.5813 4.83707 5.93944 4.90611 6.29488C4.92492 6.39135 4.97242 6.48163 5.00979 6.58349ZM6.64068 3.66047C7.35629 3.54648 8.05308 3.54675 8.76201 3.65966C8.77611 2.87683 8.75285 2.12068 8.39233 1.43486C8.31042 1.2791 8.1914 1.13736 8.06471 1.02094C7.84919 0.822609 7.577 0.812639 7.3595 1.00612C7.21623 1.13359 7.08286 1.29446 6.99354 1.46962C6.64811 2.14574 6.62509 2.8895 6.64068 3.66047ZM9.13416 1.13035C9.52784 1.99025 9.55927 2.89327 9.53823 3.79575C9.95468 3.93291 10.3585 4.06577 10.791 4.20832C10.791 3.91162 10.7856 3.62571 10.792 3.33979C10.819 2.11179 9.96012 1.40657 9.13416 1.13035ZM6.25937 1.14436C6.2517 1.13628 6.24428 1.1282 6.23661 1.12011C6.06637 1.205 5.89019 1.2783 5.72688 1.37692C5.13029 1.73695 4.70271 2.24653 4.63392 3.01454C4.59928 3.40043 4.62947 3.79332 4.63095 4.18299C4.63095 4.18946 4.6406 4.19565 4.64209 4.19754C5.04987 4.06388 5.45345 3.93157 5.86544 3.79629C5.83946 2.88519 5.8793 1.9854 6.25937 1.14436Z" fill="#09050D"/>
</svg>
