<svg width="19" height="14" viewBox="0 0 19 14" fill="none" xmlns="http://www.w3.org/2000/svg">
<path d="M1.35714 14H8.14286C8.50279 14 8.84799 13.8525 9.1025 13.5899C9.35701 13.3274 9.5 12.9713 9.5 12.6C9.5 12.2287 9.35701 11.8726 9.1025 11.6101C8.84799 11.3475 8.50279 11.2 8.14286 11.2H1.35714C0.997206 11.2 0.652012 11.3475 0.397498 11.6101C0.142984 11.8726 0 12.2287 0 12.6C0 12.9713 0.142984 13.3274 0.397498 13.5899C0.652012 13.8525 0.997206 14 1.35714 14ZM10.8571 2.8H17.6429C18.0028 2.8 18.348 2.6525 18.6025 2.38995C18.857 2.1274 19 1.7713 19 1.4C19 1.0287 18.857 0.672602 18.6025 0.410051C18.348 0.1475 18.0028 0 17.6429 0H10.8571C10.4972 0 10.152 0.1475 9.8975 0.410051C9.64298 0.672602 9.5 1.0287 9.5 1.4C9.5 1.7713 9.64298 2.1274 9.8975 2.38995C10.152 2.6525 10.4972 2.8 10.8571 2.8ZM1.35714 8.4H17.6429C18.0028 8.4 18.348 8.2525 18.6025 7.98995C18.857 7.7274 19 7.3713 19 7C19 6.6287 18.857 6.2726 18.6025 6.01005C18.348 5.7475 18.0028 5.6 17.6429 5.6H1.35714C0.997206 5.6 0.652012 5.7475 0.397498 6.01005C0.142984 6.2726 0 6.6287 0 7C0 7.3713 0.142984 7.7274 0.397498 7.98995C0.652012 8.2525 0.997206 8.4 1.35714 8.4Z" fill="#F5F5F5"/>
</svg>
