<svg width="40" height="40" viewBox="0 0 40 40" fill="none" xmlns="http://www.w3.org/2000/svg">
<circle cx="20" cy="20" r="20" fill="white"/>
<path d="M37 20C37 10.6112 29.3888 3 20 3C10.6112 3 3 10.6112 3 20C3 28.4851 9.21669 35.5182 17.3438 36.7935V24.9141H13.0273V20H17.3438V16.2547C17.3438 11.9941 19.8818 9.64062 23.765 9.64062C25.6249 9.64062 27.5703 9.97266 27.5703 9.97266V14.1562H25.4267C23.3149 14.1562 22.6562 15.4667 22.6562 16.8112V20H27.3711L26.6174 24.9141H22.6562V36.7935C30.7833 35.5182 37 28.4853 37 20Z" fill="#018CCB"/>
</svg>
