<svg width="80" height="64" viewBox="0 0 80 64" fill="none" xmlns="http://www.w3.org/2000/svg">
<path d="M0 9.36585H71.6667C76.269 9.36585 80 12.8602 80 17.1707V56.1951C80 60.5056 76.269 64 71.6667 64H40H8.33333C3.73096 64 0 60.5056 0 56.1951V9.36585Z" fill="#EC8327"/>
<path d="M0 21.0732V53.0732C0 57.3837 3.73096 60.8781 8.33333 60.8781H71.6667C76.269 60.8781 80 57.3837 80 53.0732V20.2927C80 15.9822 76.269 12.4878 71.6667 12.4878H36.6667V16.3902C36.6667 18.9766 34.4281 21.0732 31.6667 21.0732H0Z" fill="url(#paint0_linear_270_560)"/>
<path d="M0 6.2439C0 2.79549 2.98477 0 6.66667 0H30C33.6819 0 36.6667 2.79549 36.6667 6.2439V9.36585H0V6.2439Z" fill="#EC8327"/>
<defs>
<linearGradient id="paint0_linear_270_560" x1="0" y1="0" x2="102.042" y2="65.2806" gradientUnits="userSpaceOnUse">
<stop stop-color="#FFCD38"/>
<stop offset="1" stop-color="#F1882C"/>
</linearGradient>
</defs>
</svg>
