<svg width="316" height="108" viewBox="0 0 316 108" fill="none" xmlns="http://www.w3.org/2000/svg">
<path d="M158.222 10.6167L159.95 24.562C159.228 23.9386 158.433 23.2532 157.551 22.4948C155.517 20.7412 154.098 19.0276 153.121 17.4381H156.082C156.414 17.4381 156.702 17.2084 156.774 16.8875L158.222 10.6167Z" fill="#ED1F2F"/>
<mask id="mask0_61_247" style="mask-type:luminance" maskUnits="userSpaceOnUse" x="150" y="0" width="40" height="36">
<path d="M150.267 0H189.467V35.3974H150.267V0Z" fill="white"/>
</mask>
<g mask="url(#mask0_61_247)">
<path d="M182.627 22.4948C174.457 29.5203 173.793 30.0927 170.089 35.3172C167.315 31.4088 166.246 30.1036 162.462 26.7495L165.426 13.6245L168.678 23.1656C168.777 23.4463 169.035 23.6396 169.334 23.6505C169.63 23.6578 169.903 23.4828 170.016 23.2094L172.401 17.438H180.917C181.311 17.438 181.632 17.1208 181.632 16.7271C181.632 16.3333 181.311 16.0125 180.917 16.0125H171.927C171.635 16.0125 171.376 16.1875 171.267 16.4536L169.422 20.9125L165.962 10.7734C165.86 10.4708 165.568 10.274 165.251 10.2885C164.93 10.3068 164.66 10.5328 164.591 10.8463L161.427 24.8573L159.144 6.43489C159.101 6.09218 158.82 5.82968 158.473 5.81145C158.131 5.79322 157.817 6.02656 157.741 6.36197L155.513 16.0125H152.337C150.365 11.9437 151.185 9.0052 151.185 9.0052C151.185 9.0052 151.47 2.26041 159.162 0.645305C166.859 -0.969798 170.089 6.24895 170.089 6.24895C170.089 6.24895 173.319 -0.969798 181.012 0.645305C188.708 2.26041 188.993 9.0052 188.993 9.0052C188.993 9.0052 190.797 15.4656 182.627 22.4948Z" fill="#ED1F2F"/>
</g>
<mask id="mask1_61_247" style="mask-type:luminance" maskUnits="userSpaceOnUse" x="125" y="3" width="29" height="25">
<path d="M125.606 3.7334H154V27.0667H125.606V3.7334Z" fill="white"/>
</mask>
<g mask="url(#mask1_61_247)">
<path d="M152.338 16.0126C152.56 16.4756 152.819 16.9532 153.121 17.4381H150.15L147.97 23.1912C147.853 23.4938 147.547 23.6834 147.226 23.6433C146.902 23.6105 146.643 23.3589 146.595 23.0381L145.472 15.2141L143.292 26.0933C143.223 26.4287 142.931 26.6694 142.592 26.6694H142.578C142.235 26.6621 141.943 26.4105 141.889 26.0714C140.893 20.1251 139.329 11.1928 138.476 7.19331C137.736 9.70164 136.569 13.9709 135.785 16.9095C135.705 17.223 135.421 17.4381 135.096 17.4381H126.317C125.923 17.4381 125.606 17.1209 125.606 16.7272C125.606 16.3334 125.923 16.0126 126.317 16.0126H134.549C135.523 12.3558 137.506 5.0532 137.929 4.41518C138.101 4.15997 138.399 4.03602 138.698 4.10164C139.227 4.21466 139.355 4.72508 139.566 5.56727C139.708 6.13237 139.887 6.95633 140.102 8.00998C140.459 9.77456 140.919 12.2246 141.469 15.2944C141.899 17.7006 142.322 20.1214 142.651 22.0319L144.889 10.861C144.958 10.522 145.261 10.2777 145.607 10.2886C145.957 10.2996 146.245 10.5584 146.296 10.9011L147.616 20.0959L148.991 16.472C149.093 16.1949 149.363 16.0126 149.658 16.0126H152.338Z" fill="#FD0100"/>
</g>
<path d="M162.462 26.7495L161.915 29.1631C161.842 29.4912 161.551 29.7209 161.219 29.7209C161.208 29.7209 161.197 29.7209 161.182 29.7172C160.836 29.7026 160.555 29.4401 160.511 29.0938L159.95 24.562C160.909 25.3896 161.733 26.1078 162.462 26.7495Z" fill="#FD0100"/>
<mask id="mask2_61_247" style="mask-type:luminance" maskUnits="userSpaceOnUse" x="0" y="40" width="316" height="68">
<path d="M315.467 40.1333H0V107.333H315.467V40.1333Z" fill="white"/>
</mask>
<g mask="url(#mask2_61_247)">
<path d="M40.3365 54.8469V92.5448H31.6157V77.0865H14.4949V92.5448H5.77403V54.8469H14.4949V69.7073H31.6157V54.8469H40.3365Z" fill="#189EE5"/>
<path d="M77.074 78.1657C77.074 78.275 77.0193 79.0261 76.9136 80.4261H54.9948C55.3922 82.2271 56.3255 83.6454 57.7948 84.6844C59.2604 85.7271 61.0943 86.2448 63.2927 86.2448C64.7984 86.2448 66.1365 86.0224 67.3031 85.574C68.4698 85.1292 69.5526 84.4183 70.5552 83.4448L75.0323 88.2865C72.2979 91.4183 68.313 92.9823 63.074 92.9823C59.8073 92.9823 56.9125 92.348 54.3969 91.0719C51.8886 89.7886 49.949 88.0204 48.5781 85.7636C47.2146 83.4995 46.5365 80.9329 46.5365 78.0636C46.5365 75.2271 47.2073 72.6678 48.549 70.3928C49.8979 68.1105 51.75 66.3313 54.1052 65.0553C56.4568 63.7829 59.0854 63.1448 61.9948 63.1448C64.8313 63.1448 67.3979 63.7573 69.6948 64.9823C71.999 66.2 73.8 67.95 75.1052 70.2323C76.4177 72.5073 77.074 75.1542 77.074 78.1657ZM62.0531 69.4886C60.1464 69.4886 58.5458 70.0282 57.2552 71.1073C55.9609 72.1865 55.1734 73.6594 54.8927 75.5261H69.1552C68.8708 73.6995 68.0833 72.2375 66.7927 71.1365C65.4984 70.0391 63.9198 69.4886 62.0531 69.4886Z" fill="#189EE5"/>
<path d="M94.3616 63.1448C98.8532 63.1448 102.299 64.2167 104.701 66.3532C107.111 68.4823 108.318 71.7016 108.318 76.0073V92.5448H100.457V88.9428C98.8715 91.637 95.9256 92.9823 91.6199 92.9823C89.3923 92.9823 87.4636 92.6032 85.8303 91.8448C84.197 91.0865 82.9465 90.0474 82.0824 88.724C81.2256 87.3933 80.7991 85.8875 80.7991 84.2032C80.7991 81.5125 81.809 79.3907 83.8324 77.8448C85.8631 76.299 88.9985 75.5261 93.2386 75.5261H99.9178C99.9178 73.6995 99.3563 72.2959 98.2407 71.3115C97.1324 70.3198 95.4626 69.824 93.2386 69.824C91.6928 69.824 90.1688 70.0683 88.6741 70.5532C87.1866 71.0308 85.9215 71.6834 84.8824 72.5073L81.8782 66.6448C83.4532 65.5292 85.3418 64.6688 87.5511 64.0636C89.7569 63.4511 92.0282 63.1448 94.3616 63.1448ZM93.7199 87.324C95.1563 87.324 96.4324 86.9959 97.5407 86.3323C98.6563 85.6615 99.4511 84.6808 99.9178 83.3865V80.4261H94.1574C90.7048 80.4261 88.9803 81.5599 88.9803 83.824C88.9803 84.9032 89.4032 85.7599 90.2491 86.3907C91.0949 87.0141 92.2506 87.324 93.7199 87.324Z" fill="#189EE5"/>
<path d="M123.933 67.3886C124.943 65.9886 126.299 64.9349 128.001 64.224C129.7 63.5058 131.665 63.1448 133.893 63.1448V70.8886C132.96 70.823 132.333 70.7865 132.012 70.7865C129.609 70.7865 127.724 71.4646 126.353 72.8136C124.99 74.1553 124.312 76.175 124.312 78.8657V92.5448H115.912V63.5678H123.933V67.3886Z" fill="#189EE5"/>
<path d="M157.807 91.1448C156.979 91.7573 155.962 92.2203 154.759 92.5302C153.563 92.8292 152.298 92.9823 150.967 92.9823C147.525 92.9823 144.86 92.1037 142.975 90.3427C141.087 88.5854 140.146 85.9969 140.146 82.5844V70.6844H135.684V64.2094H140.146V57.1656H148.546V64.2094H155.765V70.6844H148.546V82.4677C148.546 83.6927 148.856 84.6407 149.479 85.3115C150.11 85.975 151.003 86.3032 152.163 86.3032C153.483 86.3032 154.613 85.9459 155.546 85.224L157.807 91.1448Z" fill="#189EE5"/>
<path d="M179.675 63.1448C182.366 63.1448 184.816 63.7646 187.025 64.9969C189.231 66.2328 190.963 67.9719 192.217 70.2177C193.478 72.4636 194.113 75.0813 194.113 78.0636C194.113 81.0386 193.478 83.649 192.217 85.8948C190.963 88.1407 189.231 89.887 187.025 91.1302C184.816 92.3662 182.366 92.9823 179.675 92.9823C175.687 92.9823 172.653 91.7245 170.575 89.2052V92.5448H162.554V52.5865H170.954V66.6448C173.073 64.3115 175.978 63.1448 179.675 63.1448ZM178.231 86.0844C180.379 86.0844 182.143 85.3625 183.525 83.9115C184.903 82.4532 185.596 80.5063 185.596 78.0636C185.596 75.6136 184.903 73.6667 183.525 72.2157C182.143 70.7573 180.379 70.0282 178.231 70.0282C176.073 70.0282 174.301 70.7573 172.923 72.2157C171.541 73.6667 170.852 75.6136 170.852 78.0636C170.852 80.5063 171.541 82.4532 172.923 83.9115C174.301 85.3625 176.073 86.0844 178.231 86.0844Z" fill="#189EE5"/>
<path d="M228.097 78.1657C228.097 78.275 228.042 79.0261 227.936 80.4261H206.018C206.415 82.2271 207.348 83.6454 208.818 84.6844C210.283 85.7271 212.117 86.2448 214.315 86.2448C215.821 86.2448 217.159 86.0224 218.326 85.574C219.493 85.1292 220.575 84.4183 221.578 83.4448L226.055 88.2865C223.321 91.4183 219.336 92.9823 214.097 92.9823C210.83 92.9823 207.935 92.348 205.42 91.0719C202.911 89.7886 200.972 88.0204 199.601 85.7636C198.237 83.4995 197.559 80.9329 197.559 78.0636C197.559 75.2271 198.23 72.6678 199.572 70.3928C200.921 68.1105 202.773 66.3313 205.128 65.0553C207.48 63.7829 210.108 63.1448 213.018 63.1448C215.854 63.1448 218.421 63.7573 220.718 64.9823C223.022 66.2 224.823 67.95 226.128 70.2323C227.44 72.5073 228.097 75.1542 228.097 78.1657ZM213.076 69.4886C211.169 69.4886 209.569 70.0282 208.278 71.1073C206.984 72.1865 206.196 73.6594 205.915 75.5261H220.178C219.894 73.6995 219.106 72.2375 217.815 71.1365C216.521 70.0391 214.943 69.4886 213.076 69.4886Z" fill="#189EE5"/>
<path d="M245.384 63.1448C249.876 63.1448 253.321 64.2167 255.724 66.3532C258.134 68.4823 259.341 71.7016 259.341 76.0073V92.5448H251.48V88.9428C249.894 91.637 246.948 92.9823 242.643 92.9823C240.415 92.9823 238.486 92.6032 236.853 91.8448C235.22 91.0865 233.969 90.0474 233.105 88.724C232.248 87.3933 231.822 85.8875 231.822 84.2032C231.822 81.5125 232.832 79.3907 234.855 77.8448C236.886 76.299 240.021 75.5261 244.261 75.5261H250.941C250.941 73.6995 250.379 72.2959 249.264 71.3115C248.155 70.3198 246.485 69.824 244.261 69.824C242.716 69.824 241.192 70.0683 239.697 70.5532C238.209 71.0308 236.944 71.6834 235.905 72.5073L232.901 66.6448C234.476 65.5292 236.365 64.6688 238.574 64.0636C240.78 63.4511 243.051 63.1448 245.384 63.1448ZM244.743 87.324C246.179 87.324 247.455 86.9959 248.564 86.3323C249.679 85.6615 250.474 84.6808 250.941 83.3865V80.4261H245.18C241.728 80.4261 240.003 81.5599 240.003 83.824C240.003 84.9032 240.426 85.7599 241.272 86.3907C242.118 87.0141 243.273 87.324 244.743 87.324Z" fill="#189EE5"/>
<path d="M285.616 91.1448C284.788 91.7573 283.771 92.2203 282.568 92.5302C281.372 92.8292 280.107 92.9823 278.776 92.9823C275.335 92.9823 272.669 92.1037 270.785 90.3427C268.896 88.5854 267.955 85.9969 267.955 82.5844V70.6844H263.493V64.2094H267.955V57.1656H276.355V64.2094H283.574V70.6844H276.355V82.4677C276.355 83.6927 276.665 84.6407 277.289 85.3115C277.919 85.975 278.813 86.3032 279.972 86.3032C281.292 86.3032 282.422 85.9459 283.355 85.224L285.616 91.1448Z" fill="#189EE5"/>
<path d="M300.105 92.9823C297.703 92.9823 295.351 92.6834 293.047 92.0928C290.75 91.5021 288.923 90.7511 287.564 89.8469L290.364 83.824C291.654 84.6516 293.215 85.3261 295.045 85.8511C296.882 86.3688 298.676 86.624 300.426 86.624C303.984 86.624 305.764 85.7454 305.764 83.9844C305.764 83.1605 305.275 82.5662 304.305 82.2053C303.343 81.848 301.855 81.5417 299.843 81.2865C297.469 80.9292 295.511 80.5136 293.966 80.0469C292.427 79.5803 291.093 78.7563 289.955 77.5678C288.825 76.3829 288.264 74.6948 288.264 72.5073C288.264 70.6808 288.792 69.0584 289.853 67.6365C290.91 66.2183 292.453 65.1136 294.476 64.3261C296.507 63.5386 298.902 63.1448 301.666 63.1448C303.715 63.1448 305.753 63.3709 307.776 63.8157C309.807 64.2641 311.487 64.8803 312.822 65.6678L310.022 71.6469C307.473 70.2105 304.688 69.4886 301.666 69.4886C299.876 69.4886 298.53 69.7438 297.626 70.2469C296.729 70.7537 296.284 71.399 296.284 72.1865C296.284 73.0834 296.769 73.7105 297.743 74.0678C298.712 74.4287 300.255 74.7678 302.366 75.0886C304.735 75.4896 306.675 75.9125 308.184 76.3573C309.69 76.8058 310.999 77.6224 312.107 78.8073C313.223 79.9959 313.784 81.6474 313.784 83.7657C313.784 85.5667 313.245 87.1636 312.166 88.5636C311.094 89.9636 309.526 91.0537 307.455 91.8303C305.392 92.5959 302.942 92.9823 300.105 92.9823Z" fill="#189EE5"/>
</g>
</svg>
