<svg width="161" height="90" viewBox="0 0 161 90" fill="none" xmlns="http://www.w3.org/2000/svg">
<path d="M82.2279 26.7659L86.5848 61.9237C84.7648 60.352 82.761 58.6239 80.5367 56.7121C75.4078 52.2909 71.8322 47.9709 69.3689 43.9633H76.8325C77.6689 43.9633 78.395 43.3843 78.5789 42.5754L82.2279 26.7659Z" fill="#ED1F2F"/>
<mask id="mask0_122_292" style="mask-type:luminance" maskUnits="userSpaceOnUse" x="62" y="0" width="99" height="90">
<path d="M62.172 0H161V89.2412H62.172V0Z" fill="white"/>
</mask>
<g mask="url(#mask0_122_292)">
<path d="M143.757 56.7122C123.158 74.4244 121.485 75.8674 112.147 89.039C105.152 79.1856 102.459 75.895 92.9178 67.4388L100.391 34.349L108.589 58.4034C108.838 59.1112 109.49 59.5983 110.244 59.6259C110.988 59.6443 111.678 59.2031 111.963 58.5137L117.974 43.9634H139.446C140.438 43.9634 141.247 43.1637 141.247 42.1711C141.247 41.1784 140.438 40.3695 139.446 40.3695H116.779C116.044 40.3695 115.391 40.8107 115.116 41.4817L110.465 52.723L101.742 27.1612C101.484 26.3983 100.749 25.9019 99.9494 25.9387C99.1405 25.9847 98.4603 26.5545 98.2857 27.345L90.3074 62.6683L84.5535 16.2232C84.4432 15.3592 83.7354 14.6974 82.8622 14.6514C81.9982 14.6055 81.2077 15.1937 81.0147 16.0394L75.3986 40.3695H67.3927C62.4201 30.1117 64.4882 22.7033 64.4882 22.7033C64.4882 22.7033 65.2051 5.69881 84.5994 1.62694C104.003 -2.44494 112.147 15.7544 112.147 15.7544C112.147 15.7544 120.29 -2.44494 139.685 1.62694C159.088 5.69881 159.805 22.7033 159.805 22.7033C159.805 22.7033 164.355 38.9908 143.757 56.7122Z" fill="#ED1F2F"/>
</g>
<mask id="mask1_122_292" style="mask-type:luminance" maskUnits="userSpaceOnUse" x="0" y="9" width="72" height="60">
<path d="M0 9.41223H71.5841V68.2385H0V9.41223Z" fill="white"/>
</mask>
<g mask="url(#mask1_122_292)">
<path d="M67.3928 40.3696C67.9535 41.5369 68.6061 42.741 69.369 43.9635H61.8778L56.3812 58.4678C56.0871 59.2307 55.315 59.7087 54.5062 59.6076C53.6881 59.5248 53.0355 58.8906 52.916 58.0818L50.085 38.3566L44.5884 65.7843C44.4138 66.6299 43.6785 67.2366 42.8236 67.2366H42.7869C41.9229 67.2182 41.1875 66.584 41.0497 65.7292C38.5404 50.7377 34.5972 28.2183 32.4463 18.1351C30.5804 24.4589 27.6391 35.2223 25.6629 42.6307C25.4607 43.4212 24.7438 43.9635 23.9257 43.9635H1.79236C0.799669 43.9635 0 43.1638 0 42.1711C0 41.1784 0.799669 40.3696 1.79236 40.3696H22.547C25.0011 31.1504 30.0014 12.7396 31.0676 11.1311C31.4996 10.4877 32.2533 10.1752 33.007 10.3406C34.3398 10.6256 34.6615 11.9124 35.1946 14.0356C35.5531 15.4603 36.0035 17.5376 36.5458 20.194C37.4466 24.6427 38.6047 30.8195 39.9926 38.5588C41.0772 44.6253 42.1435 50.7285 42.9707 55.5449L48.6143 27.3818C48.789 26.527 49.5519 25.9112 50.4251 25.9388C51.3075 25.9663 52.0336 26.6189 52.1623 27.4829L55.4897 50.6641L58.9549 41.5277C59.2123 40.8291 59.8924 40.3696 60.637 40.3696H67.3928Z" fill="#FD0100"/>
</g>
<path d="M92.9177 67.4388L91.539 73.5237C91.3552 74.3509 90.6198 74.93 89.7834 74.93C89.7558 74.93 89.7282 74.93 89.6915 74.9208C88.8183 74.884 88.1105 74.2222 88.0002 73.349L86.5847 61.9239C89.0021 64.0104 91.0794 65.8211 92.9177 67.4388Z" fill="#FD0100"/>
</svg>
