<svg width="139" height="121" viewBox="0 0 139 121" fill="none" xmlns="http://www.w3.org/2000/svg">
<path d="M112.248 74.7892C97.9834 62.8628 94.4171 36.8857 94.4171 25.388C86.2323 34.9758 80.0937 50.4296 78.0475 56.958C69.2856 82.214 56.7273 84.5557 51.7392 84.7281C39.462 86.1897 29.5233 56.958 27.4771 52.8659C25.4309 48.7737 10.5228 19.834 5.26116 30.6499C-0.000505697 41.4659 4.67653 62.5122 10.5228 80.9278C15.1999 95.6603 15.1999 107.529 14.6152 111.621C11.809 123.781 3.70248 121.56 0 118.929L0.00247761 42.7547C0.00278834 32.816 2.35679 21.5583 7.60018 18.3725C30.693 4.34137 38.8778 27.1419 49.9858 54.6195C58.8722 76.6015 68.7122 64.9706 72.7863 56.958C77.4816 45.9702 86.1744 23.108 96.4638 19.834C109.326 15.7416 117.218 19.834 123.064 25.388C127.703 29.7949 134.466 27.9746 137.333 26.4234C135.773 5.90104 136.729 17.8114 137.403 26.3851C137.38 26.3979 137.357 26.4106 137.333 26.4234C137.351 26.6586 137.369 26.8981 137.388 27.1419C139.434 54.0349 122.188 73.0353 120.434 74.7892C119.031 76.1923 118.875 79.4662 118.972 80.9278L118.826 90.2819L118.698 106.187C120.47 118.292 125.111 114.836 133.88 116.883C140.896 118.519 137.388 120.293 134.757 120.975H99.3865C89.097 119.338 95.0992 117.565 99.3865 116.883C108.741 117.818 113.436 110.572 113.71 106.359V90.2819C114.178 80.694 112.93 75.9585 112.248 74.7892Z" fill="url(#paint0_linear_44_391)"/>
<path d="M96.1899 13.8156L97.6515 3H132.729L135.652 22.0004" stroke="#A53861" stroke-width="5" stroke-linecap="round"/>
<defs>
<linearGradient id="paint0_linear_44_391" x1="69" y1="14.1079" x2="69" y2="120.996" gradientUnits="userSpaceOnUse">
<stop stop-color="#A53861"/>
<stop offset="0.408654" stop-color="#63223A"/>
<stop offset="0.822115" stop-color="#3F1525"/>
</linearGradient>
</defs>
</svg>
