<svg width="22" height="23" viewBox="0 0 22 23" fill="none" xmlns="http://www.w3.org/2000/svg">
<path d="M21.1214 22.2857H0.221436C0.259088 21.9223 0.283666 21.5652 0.335176 21.2117C0.451531 20.4148 0.765036 19.6998 1.28223 19.0775C1.70921 18.564 2.23137 18.1637 2.8087 17.831C3.56514 17.3952 4.37937 17.0866 5.18836 16.7659C5.80674 16.5207 6.43323 16.2895 6.98651 15.9103C7.11489 15.8222 7.22941 15.7142 7.34838 15.6129C7.61247 15.3885 7.653 15.0833 7.65535 14.7651C7.65849 14.3366 7.66189 13.908 7.66163 13.4795C7.66163 13.4405 7.64463 13.3932 7.61927 13.3636C7.05998 12.7132 6.74072 11.9486 6.53416 11.1291C6.52344 11.0865 6.50357 11.0312 6.4701 11.0112C6.05253 10.7598 5.83106 10.3707 5.69823 9.92371C5.58292 9.53592 5.50605 9.14113 5.56201 8.73335C5.596 8.48556 5.67601 8.25284 5.82322 8.04895C5.8763 7.97545 5.89015 7.91155 5.86897 7.82299C5.65666 6.93184 5.52148 6.03057 5.53037 5.11189C5.53821 4.31685 5.653 3.54232 5.98271 2.81066C6.44081 1.79406 7.20719 1.09356 8.25046 0.708116C9.41872 0.276439 10.6236 0.167092 11.8491 0.419552C12.4053 0.534095 12.9065 0.766815 13.2882 1.2068C13.3128 1.23511 13.3612 1.24836 13.4012 1.25745C14.1302 1.42758 14.7441 1.77874 15.1931 2.38573C15.5544 2.87403 15.7508 3.42934 15.8436 4.02309C16.0426 5.29838 15.8483 6.5412 15.5191 7.7713C15.4857 7.89597 15.4862 7.98999 15.5615 8.10583C15.7743 8.43362 15.8371 8.8014 15.7952 9.18736C15.7348 9.74553 15.612 10.2816 15.2276 10.72C15.1512 10.8073 15.0629 10.8912 14.964 10.9502C14.8641 11.0099 14.8226 11.0863 14.7977 11.1925C14.6411 11.8647 14.3749 12.4912 13.9898 13.0665C13.9608 13.1096 13.9375 13.1605 13.8985 13.1924C13.7165 13.3413 13.699 13.5371 13.7084 13.7522C13.7265 14.1672 13.7401 14.5828 13.738 14.9979C13.7367 15.2719 13.8797 15.4633 14.0578 15.6394C14.3938 15.9721 14.8071 16.1892 15.2365 16.3718C16.0287 16.709 16.8322 17.0204 17.6224 17.3619C18.3522 17.6773 19.0372 18.0705 19.6274 18.6118C20.5271 19.4372 20.9842 20.4673 21.0725 21.6704C21.0874 21.8725 21.1044 22.0745 21.1214 22.2852V22.2857ZM1.38473 21.2507H19.9663C19.9555 21.1959 19.9474 21.1496 19.9372 21.1037C19.745 20.2476 19.2569 19.5892 18.558 19.0731C17.9477 18.6224 17.259 18.3196 16.5619 18.0323C15.8784 17.7505 15.1902 17.4783 14.5166 17.1744C13.9657 16.9259 13.4621 16.5975 13.0893 16.1082C12.9102 15.8732 12.73 15.6269 12.7206 15.3204C12.6963 14.529 12.6884 13.7371 12.6795 12.9454C12.679 12.9065 12.7232 12.8525 12.7614 12.8304C12.94 12.7278 13.0704 12.5834 13.1782 12.4107C13.5408 11.8283 13.7769 11.2021 13.8596 10.5206C13.8988 10.1964 13.8983 10.1884 14.2128 10.1434C14.3689 10.1211 14.4819 10.0497 14.5329 9.91306C14.6142 9.69566 14.6876 9.47307 14.7389 9.2471C14.8202 8.88945 14.7457 8.58218 14.3843 8.40297C14.275 8.34894 14.273 8.27674 14.3088 8.17129C14.5718 7.39858 14.7593 6.60873 14.8398 5.79525C14.9075 5.11033 14.9117 4.42931 14.718 3.76076C14.548 3.17454 14.2363 2.68962 13.6543 2.43768C13.4138 2.33353 13.1502 2.27509 12.8916 2.22236C12.7467 2.19301 12.6476 2.14184 12.5794 2.01042C12.4777 1.81458 12.3101 1.68134 12.1098 1.5951C11.9626 1.53173 11.8109 1.46939 11.6548 1.43771C10.5666 1.21797 9.50318 1.31537 8.47768 1.73484C7.72543 2.04262 7.19621 2.58391 6.89002 3.33636C6.61495 4.01218 6.55168 4.71943 6.57443 5.43864C6.60319 6.35212 6.78282 7.2417 7.01318 8.12324C7.06704 8.32946 7.07279 8.34089 6.89081 8.45154C6.65287 8.59621 6.55403 8.80452 6.59378 9.06529C6.63195 9.31567 6.6913 9.56501 6.76504 9.80735C6.82518 10.0045 6.95539 10.1466 7.18784 10.1523C7.23491 10.1533 7.28171 10.1759 7.32877 10.1777C7.42003 10.1814 7.45245 10.224 7.4616 10.3136C7.51886 10.8733 7.65483 11.413 7.91421 11.9161C8.09829 12.2735 8.26615 12.6452 8.64947 12.8506C8.67849 12.8662 8.70307 12.92 8.70281 12.9558C8.69471 13.6958 8.68555 14.4358 8.66882 15.1758C8.66594 15.303 8.64764 15.4368 8.60345 15.5552C8.44944 15.9672 8.1749 16.295 7.83577 16.5705C7.32041 16.9895 6.72059 17.2568 6.11371 17.5121C5.27622 17.8643 4.43062 18.2001 3.60724 18.5824C2.95879 18.8837 2.39296 19.3115 1.96336 19.8956C1.66555 20.3003 1.47624 20.7494 1.38499 21.2504L1.38473 21.2507Z" fill="#F5F5F5"/>
</svg>
