<svg width="343" height="347" viewBox="0 0 343 347" fill="none" xmlns="http://www.w3.org/2000/svg">
<mask id="mask0_2001_160" style="mask-type:alpha" maskUnits="userSpaceOnUse" x="96" y="100" width="229" height="229">
<path d="M205.99 105.259C207.311 100.312 214.332 100.312 215.652 105.259L220.233 122.414C231.034 162.873 262.635 194.475 303.094 205.276L320.25 209.856C325.197 211.177 325.197 218.198 320.25 219.519L303.094 224.099C262.635 234.9 231.034 266.501 220.233 306.96L215.652 324.116C214.332 329.063 207.311 329.063 205.99 324.116L201.41 306.96C190.609 266.501 159.007 234.9 118.548 224.099L101.393 219.519C96.4456 218.198 96.4456 211.177 101.393 209.856L118.548 205.276C159.007 194.475 190.609 162.873 201.41 122.414L205.99 105.259Z" fill="#ED9028" stroke="#F5F5F5" stroke-width="2"/>
</mask>
<g mask="url(#mask0_2001_160)">
<path d="M205.99 105.259C207.311 100.312 214.332 100.312 215.652 105.259L220.233 122.414C231.034 162.873 262.635 194.475 303.094 205.276L320.25 209.856C325.197 211.177 325.197 218.198 320.25 219.519L303.094 224.099C262.635 234.9 231.034 266.501 220.233 306.96L215.652 324.116C214.332 329.063 207.311 329.063 205.99 324.116L201.41 306.96C190.609 266.501 159.007 234.9 118.548 224.099L101.393 219.519C96.4456 218.198 96.4456 211.177 101.393 209.856L118.548 205.276C159.007 194.475 190.609 162.873 201.41 122.414L205.99 105.259Z" fill="#ED9028" fill-opacity="0.1" stroke="#F5F5F5" stroke-width="2"/>
<path d="M126.569 50.6626C127.89 45.7155 134.911 45.7155 136.231 50.6626L140.812 67.8179C151.613 108.277 183.214 139.879 223.673 150.68L240.829 155.26C245.776 156.581 245.776 163.602 240.829 164.922L223.673 169.502C183.214 180.304 151.613 211.905 140.812 252.364L136.231 269.52C134.911 274.467 127.89 274.467 126.569 269.52L121.989 252.364C111.188 211.905 79.586 180.304 39.127 169.502L21.9717 164.922C17.0246 163.602 17.0246 156.581 21.9717 155.26L39.127 150.68C79.5861 139.879 111.188 108.277 121.989 67.8179L126.569 50.6626Z" fill="#ED9028" fill-opacity="0.5" stroke="#F5F5F5" stroke-width="2"/>
</g>
<path d="M126.569 50.6626C127.89 45.7155 134.911 45.7155 136.231 50.6626L140.812 67.8179C151.613 108.277 183.214 139.879 223.673 150.68L240.829 155.26C245.776 156.581 245.776 163.602 240.829 164.922L223.673 169.502C183.214 180.304 151.613 211.905 140.812 252.364L136.231 269.52C134.911 274.467 127.89 274.467 126.569 269.52L121.989 252.364C111.188 211.905 79.586 180.304 39.127 169.502L21.9717 164.922C17.0246 163.602 17.0246 156.581 21.9717 155.26L39.127 150.68C79.5861 139.879 111.188 108.277 121.989 67.8179L126.569 50.6626Z" stroke="#F5F5F5" stroke-width="2"/>
<path d="M301.229 19.707C301.411 17.9085 304.032 17.9085 304.214 19.707L304.458 22.1152C305.295 30.3861 311.835 36.9264 320.106 37.7637L322.514 38.0078C324.313 38.1899 324.313 40.8101 322.514 40.9922L320.106 41.2363C311.835 42.0736 305.295 48.6139 304.458 56.8848L304.214 59.293C304.032 61.0915 301.411 61.0915 301.229 59.293L300.985 56.8848C300.148 48.6139 293.608 42.0736 285.337 41.2363L282.928 40.9922C281.13 40.8101 281.13 38.1899 282.928 38.0078L285.337 37.7637C293.608 36.9264 300.148 30.3861 300.985 22.1152L301.229 19.707Z" fill="#ED9028" stroke="#F5F5F5"/>
<path d="M42.6794 69.2539C42.8065 67.9986 44.6364 67.9986 44.7634 69.2539C45.4165 75.7044 50.517 80.805 56.9675 81.458C58.2228 81.5851 58.2228 83.4149 56.9675 83.542C50.517 84.195 45.4165 89.2956 44.7634 95.7461C44.6364 97.0014 42.8065 97.0014 42.6794 95.7461C42.0264 89.2956 36.9259 84.195 30.4753 83.542C29.2201 83.4149 29.2201 81.5851 30.4753 81.458C36.9259 80.805 42.0264 75.7044 42.6794 69.2539Z" fill="#ED9028" stroke="#F5F5F5"/>
<path d="M111.679 304.254C111.807 302.999 113.636 302.999 113.763 304.254C114.416 310.704 119.517 315.805 125.968 316.458C127.223 316.585 127.223 318.415 125.968 318.542C119.517 319.195 114.416 324.296 113.763 330.746C113.636 332.001 111.807 332.001 111.679 330.746C111.026 324.296 105.926 319.195 99.4753 318.542C98.2201 318.415 98.2201 316.585 99.4753 316.458C105.926 315.805 111.026 310.704 111.679 304.254Z" fill="#ED9028" stroke="#F5F5F5"/>
</svg>
