<svg width="22" height="22" viewBox="0 0 22 22" fill="none" xmlns="http://www.w3.org/2000/svg">
<path d="M0 17.487C0.200715 17.31 0.383135 17.1055 0.604837 16.9607C1.52124 16.3617 2.5458 15.9909 3.5596 15.5981C4.34578 15.2935 5.13196 14.9873 5.91599 14.6762C7.16387 14.1811 7.6627 13.1898 7.73534 11.9171C7.75364 11.5904 7.70575 11.2988 7.52333 11.0044C7.31131 10.6627 7.17894 10.2709 7.00889 9.89417C6.47885 9.90978 6.15814 9.70151 5.91814 9.19241C5.62218 8.56546 5.49357 7.90407 5.51079 7.21523C5.5151 7.04625 5.53447 6.86058 5.61034 6.71582C5.70128 6.54253 5.68406 6.3983 5.63563 6.22825C5.37411 5.31015 5.18362 4.3786 5.17555 3.42068C5.16855 2.60107 5.27887 1.80406 5.76101 1.10823C6.25608 0.393553 6.94755 0.0130765 7.81391 0.00769496C9.93353 -0.00468264 12.0537 0.000698926 14.1733 0.00446602C15.3641 0.00661865 16.3543 0.829998 16.6712 2.0726C16.8709 2.85562 16.8649 3.65048 16.7369 4.43888C16.6325 5.07928 16.4678 5.71 16.3317 6.34556C16.3171 6.41283 16.2875 6.49948 16.3155 6.54899C16.5684 7.0005 16.5216 7.48699 16.4414 7.95465C16.3688 8.3798 16.2251 8.79794 16.0669 9.20102C15.87 9.70312 15.5084 9.90924 15.0138 9.89471C14.7674 10.3866 14.5118 10.8559 14.2992 11.3445C14.2303 11.5022 14.2626 11.7099 14.2691 11.894C14.2933 12.571 14.452 13.2071 14.8513 13.771C15.1489 14.1908 15.5632 14.4583 16.0223 14.6461C16.9747 15.0357 17.9401 15.3936 18.8968 15.773C19.8945 16.1685 20.8927 16.563 21.765 17.2109C21.9377 17.3396 22.006 17.4827 21.9996 17.7007C21.9829 18.2227 21.9942 18.7458 21.9937 19.2689C21.9915 20.7256 21.1601 21.7121 19.7201 21.9688C19.6927 21.9736 19.6674 21.9892 19.6416 22H2.36392C2.31603 21.9871 2.26921 21.9688 2.22078 21.9613C1.27102 21.8095 0.598379 21.2918 0.21363 20.4146C0.111927 20.1826 0.0694163 19.9249 0 19.6789C0 18.9481 0 18.2178 0 17.487ZM15.6795 6.13299C15.8081 5.40056 15.9593 4.67943 16.0551 3.95131C16.1315 3.36848 16.0992 2.78135 15.9426 2.20553C15.6892 1.27236 14.9993 0.735821 14.0318 0.735821C12.0053 0.735821 9.97873 0.735821 7.95166 0.735821C6.99598 0.735821 6.30289 1.27452 6.0559 2.1953C5.82935 3.03913 5.88424 3.88404 6.03922 4.72733C6.12639 5.20198 6.24478 5.67072 6.34809 6.13784H6.7054C6.7054 6.0555 6.70917 5.985 6.70486 5.9145C6.67419 5.44308 6.63383 4.97219 6.61069 4.50023C6.56388 3.538 7.13912 2.77113 8.05767 2.60807C8.64906 2.50313 9.23129 2.56824 9.75218 2.90298C10.1321 3.1473 10.5228 3.33027 10.992 3.31144C11.2164 3.30229 11.3595 3.47289 11.3552 3.679C11.3509 3.88296 11.2045 4.02342 10.9753 4.03472C10.5206 4.05625 10.1014 3.94377 9.69999 3.72743C9.41371 3.57352 9.1199 3.39055 8.80887 3.33243C7.81498 3.1473 7.26665 3.75004 7.34198 4.57503C7.441 5.65834 7.50019 6.74542 7.57983 7.83034C7.62126 8.39433 7.61965 8.96693 7.72566 9.51907C7.91615 10.5093 8.46233 11.3052 9.22645 11.9569C9.63703 12.3073 10.1025 12.4838 10.6449 12.4633C10.9452 12.452 11.2465 12.4628 11.5473 12.4585C11.924 12.4531 12.2673 12.3358 12.5676 12.113C13.3048 11.5651 13.8284 10.8569 14.1485 9.99373C14.3783 9.37431 14.339 8.72368 14.3934 8.08543C14.5032 6.79493 14.6 5.50281 14.6856 4.2107C14.7211 3.67039 14.5392 3.2108 14.0576 2.90944C13.6782 2.67157 13.251 2.56017 12.8146 2.54241C12.2453 2.51927 11.6732 2.54995 11.1023 2.56717C10.8499 2.5747 10.6713 2.45738 10.6508 2.2432C10.6298 2.02524 10.7552 1.87564 11.0006 1.84012C11.8804 1.71365 12.7581 1.71311 13.6223 1.94075C14.4951 2.17108 15.171 2.65166 15.3582 3.58482C15.4362 3.97445 15.3787 4.39367 15.3625 4.7989C15.3448 5.24611 15.3039 5.69224 15.2721 6.15183C15.4045 6.14591 15.51 6.1416 15.68 6.13407L15.6795 6.13299ZM18.7063 21.273C19.0389 21.2584 19.3456 21.2557 19.6502 21.2294C20.4692 21.1578 21.1768 20.4453 21.2306 19.6213C21.2608 19.165 21.215 18.7016 21.2683 18.2496C21.3189 17.8255 21.1252 17.6232 20.7888 17.437C19.7831 16.8805 18.7117 16.4823 17.6398 16.084C17.2631 15.9436 17.3751 15.9048 17.1469 16.2428C15.9765 17.9735 14.4633 19.2602 12.4347 19.878C11.8271 20.0632 11.2072 20.1826 10.5728 20.096C9.48636 19.9485 8.48816 19.5519 7.56691 18.9605C6.4272 18.2291 5.51671 17.2701 4.78488 16.1379C4.7004 16.0066 4.63152 15.9683 4.47923 16.0313C4.10955 16.1841 3.72211 16.2961 3.35889 16.4624C2.5415 16.8364 1.73433 17.2335 0.922322 17.621C0.777032 17.6904 0.725373 17.7943 0.730754 17.9617C0.744745 18.4121 0.72914 18.8636 0.738288 19.3146C0.742055 19.4992 0.754431 19.6897 0.803938 19.8662C1.13165 21.0378 2.1363 21.3924 3.30777 21.2251C3.25934 20.9162 3.22813 20.6029 3.15871 20.2989C3.01665 19.6762 2.72768 19.1209 2.33755 18.6155C2.17289 18.4019 2.17935 18.1979 2.33486 18.0602C2.50598 17.9079 2.71961 17.9364 2.89557 18.1457C3.4988 18.8625 3.79799 19.7112 3.95404 20.6196C3.99009 20.8284 4.00946 21.0399 4.03637 21.2493H17.9627C17.9751 21.1546 17.9885 21.0701 17.996 20.9856C18.0606 20.2731 18.2393 19.5896 18.5729 18.9562C18.7284 18.6607 18.927 18.3857 19.1288 18.1183C19.2698 17.9315 19.4775 17.9186 19.641 18.0456C19.8009 18.1689 19.824 18.3712 19.6975 18.5617C19.6459 18.6392 19.5872 18.7113 19.5329 18.7872C19.0115 19.5175 18.7392 20.3312 18.7053 21.2746L18.7063 21.273ZM13.5475 12.2475C13.4447 12.3385 13.3764 12.3993 13.308 12.4601C12.8469 12.8723 12.32 13.1495 11.6948 13.1796C11.2309 13.2022 10.7644 13.1968 10.3 13.1796C9.91631 13.1656 9.55039 13.0548 9.22645 12.8449C8.96008 12.6721 8.71094 12.4725 8.44565 12.2787C8.30628 13.4934 7.77678 14.4653 6.69787 15.1078C7.47221 16.2724 8.4365 17.176 9.75057 17.663C10.2795 17.8589 10.8198 17.9886 11.388 17.8923C12.4653 17.7104 13.379 17.2034 14.1717 16.4661C14.6027 16.0652 14.9815 15.6202 15.2899 15.1073C14.226 14.4626 13.6938 13.4977 13.548 12.2465L13.5475 12.2475ZM15.9609 15.4323C15.913 15.5012 15.8791 15.547 15.8484 15.5954C15.0246 16.8977 13.8881 17.8137 12.447 18.3567C11.7448 18.6215 11.0254 18.7614 10.2833 18.5773C8.83686 18.2195 7.62449 17.4736 6.67473 16.3198C6.44442 16.0399 6.24101 15.7386 6.01985 15.4393C5.80783 15.5254 5.59851 15.6105 5.38703 15.6966C5.39994 15.7299 5.40425 15.752 5.41555 15.7692C6.40836 17.2712 7.6896 18.4207 9.39918 19.0579C10.3855 19.4255 11.3633 19.4787 12.3755 19.1332C13.6465 18.6995 14.7222 17.9864 15.6181 17C15.9808 16.6001 16.3015 16.1615 16.6599 15.7176C16.393 15.6083 16.1826 15.5227 15.9609 15.4323ZM6.85338 9.18865C6.87383 9.17196 6.89428 9.15474 6.91472 9.13806C6.91957 9.11761 6.92925 9.09716 6.92818 9.07725C6.88298 8.40832 6.83885 7.73939 6.78719 7.071C6.78343 7.02041 6.735 6.95368 6.68926 6.92893C6.42343 6.78631 6.24854 6.89395 6.23886 7.22222C6.22056 7.8228 6.33034 8.40132 6.608 8.9384C6.65966 9.03796 6.77051 9.10631 6.85392 9.18918L6.85338 9.18865ZM15.0542 9.1838C15.1516 9.14721 15.2076 9.13698 15.2501 9.10738C15.2958 9.07563 15.3415 9.03204 15.3663 8.98307C15.6741 8.37764 15.8118 7.73939 15.7322 7.05916C15.7155 6.91547 15.6316 6.85466 15.4981 6.87726C15.3792 6.89718 15.2237 6.88534 15.2102 7.06454C15.1575 7.75338 15.1085 8.44222 15.0547 9.18326L15.0542 9.1838Z" fill="#F5F5F5"/>
</svg>
